<svg xmlns="http://www.w3.org/2000/svg" viewBox="0 0 364.45 367.01"><defs><style>.cls-1{fill:#abdbf9;}</style></defs><g id="Слой_2" data-name="Слой 2"><g id="Слой_1-2" data-name="Слой 1"><path class="cls-1" d="M117.46,367q0-96.22,0-192.44c0-10.31,1.25-11.55,11.48-11.56q55.23,0,110.46,0c6.81,0,7,.23,7,7q0,98.48,0,196.94h-14c.51-9.8-2.18-19.34-2.07-29.16.31-27.28,0-54.57.13-81.85a33.92,33.92,0,0,0-2.09-11.16c-.53-1.61-1.31-2.65-3.12-2.6-1.52,0-2.83.82-3,2.19-.56,5.41-3.59,10.44-3.66,15.64-.39,29.28-.13,58.56-.29,87.84,0,2.64,2.64,5,1.58,6.91-2.22,4-1.06,8.14-1.51,12.19h-30l0-114.87c0-1,0-2-.05-3-.33-4-2.52-6.78-6.44-6.92-4.28-.15-5.43,3.42-5.49,6.93-.34,18.82-.5,37.61-1.74,56.44-1.34,20.39-.31,40.93-.31,61.41h-28q0-9.24,0-18.49c0-25.65-.31-51.31.22-76.95.16-7.57-.32-15.07-.28-22.6a6,6,0,0,0-4.72-6.26c-2.46-.43-4.92,2.27-4.92,4.67,0,5.88-2.46,11.26-2.42,17.19.22,34.14.1,68.29.1,102.44Z"/><path class="cls-1" d="M57.16,1.29C67.42-.8,76.63,3.79,86.27,5.49c3.91.69,7.92,1,11.78,1.47,7,.81,13.53,3.72,20.62,4.23,5.88.42,11.63,2.53,17.51,3,10.36.9,19.86,5.41,30.34,6.19,6.2.45,12.43,1.6,18.73,1.63,10.51.05,20.87-2,30.81-4.58,12-3.14,24.28-4,36.17-6.85,9-2.11,18.18-2.64,26.93-5.46a8,8,0,0,1,2.34-.83c8.69.27,16.69-4.89,25-4.28,6.12.45,12.66-.29,18.82,2.85,5.52,2.81,11.59,4.38,17.07,7.71,9.57,5.82,15.41,13.7,19.05,24.27,3,8.59,3.08,17.11,3,25.82-.08,9.38-4.3,17.1-8.94,25.09-5.3,9.12-13.51,14-21.68,19.52-2.8,1.88-5.94,2.52-8.81,3.07-9.25,1.76-18.68,4.13-28.1,2.38-8-1.49-14.2-6.88-19.65-12.75-8.36-9-8.76-20.61-6.11-31,2-7.85,7.56-15.4,17.45-17.75,10.15-2.42,19.33-1.14,28,4.34,1.91,1.2,3.27,3.28,4.91,4.93,1.38,1.39,2.75,3.36,5,2.08s2.32-3.65,1.64-5.79a15.18,15.18,0,0,0-5-6.71c-10.33-9-22.49-10.37-35.4-9a9.17,9.17,0,0,0-4.09,1.69c-6.58,4.28-12.82,8.88-18,15-2.59,3.06-2.87,6.9-4.7,10.22-2.18,4-4.61,5.09-8.63,5.08q-47-.09-94,0c-15.17,0-30.34-.06-45.5,0-5.21,0-8.47-1.19-9.9-7.24-2.7-11.42-10.75-19.37-21.19-23.61a30.24,30.24,0,0,0-16.64-1.85c-5.81,1-11.15,3-16.57,4.83-5.88,2-9.62,6.9-12.79,12-1.06,1.7-.21,3.84,1.72,5.22s3.9,2,5.38.18C46,56.67,51,55.47,54.19,51.9c1.38-1.55,3.12-1.78,4.85-2.27,14.12-3.94,22.75-1.24,31.24,10.61,5.8,8.09,3.51,15.76,4,23.67C94.6,90,90.79,95.79,86.59,99c-7.13,5.49-13.71,12.43-24.45,12.28-9.83-.14-19.52-1.35-28.21-4.89S16.77,97.76,11.15,88.5c-4.09-6.75-6.65-14-9.94-20.9C-.86,63.26.31,58.05.52,53.26,1.13,39.48,4.9,27,16.1,17.78a38.53,38.53,0,0,0,5.84-6.13c3.26-4.16,8-5.5,12.6-7.22C41.91,1.71,49.32-.21,57.16,1.29Z"/><path class="cls-1" d="M182.39,121c31.49,0,63,.07,94.48-.07,4.85,0,7.26.71,8.11,6.49a33.78,33.78,0,0,1-.37,13c-.93,4.09-3.08,5.57-6.94,5.56-14.83,0-29.77,1.13-44.47-.26-38.07-3.61-76.16-.91-114.22-1.42-8.8-.12-17.72,1.94-26.71,1.76-3.49-.07-6.44-1.52-9.63-2.35-2-.52-2.15-2.35-2.16-4.05,0-4.5.11-9,0-13.5-.15-4,1.76-5.2,5.47-5.18,15.33.1,30.67,0,46,0Z"/><path class="cls-1" d="M181.23,104q-37.48,0-75,0c-7.23,0-8.58-1.9-5-8.31,2.15-3.8,1.27-8.5,4.54-11.94C107.52,82,109,81,111.31,81c23.49,0,47.11-1.56,70.42.48,23.64,2.08,47.16.5,70.71,1.47,6.64.27,7.82,1.27,8,7.91.07,2.16.09,4.21,1.29,6.24,3,5,1.88,6.81-4.06,6.82q-38.22.08-76.45,0Z"/></g></g></svg>